<svg xmlns="http://www.w3.org/2000/svg" viewBox="0 0 100 100" width="100" height="100">
  <!-- MetaMask Logo -->
  <path d="M85 15 L50 35 L60 10 Z" fill="#E2761B" />
  <path d="M15 15 L50 35 L40 10 Z" fill="#E4761B" />
  <path d="M75 65 L65 80 L85 85 L90 65 Z" fill="#E4761B" />
  <path d="M10 65 L15 85 L35 80 L25 65 Z" fill="#E4761B" />
  <path d="M35 50 L25 65 L45 65 L45 50 Z" fill="#E4761B" />
  <path d="M65 50 L65 65 L75 65 L55 50 Z" fill="#E4761B" />
  <path d="M35 80 L45 65 L25 65 Z" fill="#D7C1B3" />
  <path d="M65 80 L75 65 L55 65 Z" fill="#D7C1B3" />
  <path d="M40 35 L35 50 L45 50 L45 35 Z" fill="#233447" />
  <path d="M60 35 L60 50 L65 50 L65 35 Z" fill="#233447" />
  <path d="M25 65 L35 80 L35 65 Z" fill="#CD6116" />
  <path d="M65 65 L65 80 L75 65 Z" fill="#CD6116" />
  <path d="M15 15 L35 50 L40 35 L50 35 L60 35 L65 50 L85 15 L50 10 Z" fill="#F6851B" />
  <path d="M40 35 L35 50 L45 50 Z" fill="#E4751F" />
  <path d="M60 35 L55 50 L65 50 Z" fill="#E4751F" />
  <path d="M65 50 L55 65 L65 65 L75 65 Z" fill="#F6851B" />
  <path d="M35 50 L35 65 L45 65 L45 50 Z" fill="#F6851B" />
  <path d="M35 65 L35 80 L45 65 Z" fill="#E4751F" />
  <path d="M65 65 L55 80 L65 80 Z" fill="#E4751F" />
</svg>