<svg xmlns="http://www.w3.org/2000/svg" viewBox="0 0 100 100" width="100" height="100">
    <circle cx="50" cy="40" r="25" fill="#ffb6c1" />
    <circle cx="50" cy="40" r="20" fill="#ffc0cb" />
    <!-- Face -->
    <circle cx="50" cy="40" r="18" fill="#ffddca" />
    <!-- Stylish hair -->
    <path d="M30,35 Q35,20 50,18 Q65,20 70,35 Q70,15 50,12 Q30,15 30,35" fill="#9966cc" />
    <!-- Trendy glasses -->
    <path d="M38,38 L46,38 Q47,38 47,39 L47,41 Q47,42 46,42 L38,42 Q37,42 37,41 L37,39 Q37,38 38,38 Z" fill="none" stroke="#ff66cc" stroke-width="1" />
    <path d="M54,38 L62,38 Q63,38 63,39 L63,41 Q63,42 62,42 L54,42 Q53,42 53,41 L53,39 Q53,38 54,38 Z" fill="none" stroke="#ff66cc" stroke-width="1" />
    <path d="M47,40 L53,40" fill="none" stroke="#ff66cc" stroke-width="1" />
    <!-- Eyes (behind glasses) -->
    <circle cx="42" cy="40" r="1.5" fill="#663399" />
    <circle cx="58" cy="40" r="1.5" fill="#663399" />
    <!-- Eyelashes -->
    <path d="M40,38 L38,36 M42,38 L42,36 M44,38 L46,36" stroke="#663399" stroke-width="0.5" />
    <path d="M56,38 L54,36 M58,38 L58,36 M60,38 L62,36" stroke="#663399" stroke-width="0.5" />
    <!-- Lips -->
    <path d="M45,46 Q50,48 55,46" fill="#ff66cc" />
    <!-- Smartphone -->
    <rect x="30" y="70" width="10" height="18" rx="1" fill="#333" />
    <rect x="31" y="72" width="8" height="14" rx="0.5" fill="#6fa8dc" />
    <circle cx="35" cy="88" r="0.8" fill="#f1f1f1" />
    <!-- Fashionable outfit -->
    <path d="M38,58 L62,58 L65,85 L35,85 Z" fill="#cc99ff" />
    <path d="M38,58 L45,65 L55,65 L62,58" fill="#cc66ff" />
    <!-- Accessories -->
    <path d="M30,55 Q40,50 50,55 Q60,50 70,55" fill="none" stroke="#ff9900" stroke-width="1.5" />
    <circle cx="50" cy="55" r="1.5" fill="#ff9900" />
    <!-- Social media icons -->
    <circle cx="65" cy="70" r="3" fill="#3b5998" />
    <circle cx="65" cy="78" r="3" fill="#c13584" />
    <circle cx="65" cy="86" r="3" fill="#1da1f2" />
  </svg>