<svg xmlns="http://www.w3.org/2000/svg" viewBox="0 0 100 100" width="100" height="100">
    <circle cx="50" cy="40" r="25" fill="#4a4a4a" />
    <circle cx="50" cy="40" r="20" fill="#666666" />
    <!-- Face -->
    <circle cx="50" cy="40" r="18" fill="#ffe0bd" />
    <!-- Professional hairstyle -->
    <path d="M32,35 Q40,25 50,25 Q60,25 68,35" fill="#1a1a1a" />
    <path d="M32,35 Q40,30 50,30 Q60,30 68,35" fill="#1a1a1a" />
    <!-- Eyes -->
    <ellipse cx="43" cy="38" rx="2" ry="2.5" fill="#1a1a1a" />
    <ellipse cx="57" cy="38" rx="2" ry="2.5" fill="#1a1a1a" />
    <!-- Nose -->
    <path d="M50,40 L50,44" fill="none" stroke="#1a1a1a" stroke-width="1" />
    <!-- Mouth (professional smile) -->
    <path d="M45,46 Q50,48 55,46" fill="none" stroke="#1a1a1a" stroke-width="1" />
    <!-- Suit -->
    <path d="M35,58 Q40,55 50,55 Q60,55 65,58 L68,85 L32,85 Z" fill="#1f3864" />
    <path d="M45,55 L45,85 M55,55 L55,85" fill="none" stroke="#19325a" stroke-width="1" />
    <!-- Shirt and tie -->
    <path d="M45,55 L45,85 L55,85 L55,55 Z" fill="#ffffff" />
    <path d="M49,55 L51,55 L52,75 L50,80 L48,75 L49,55 Z" fill="#bf9000" />
    <!-- Official document -->
    <rect x="60" y="70" width="15" height="20" rx="1" fill="#f1f1f1" />
    <rect x="61" y="72" width="13" height="2" fill="#999" />
    <rect x="61" y="76" width="13" height="1" fill="#999" />
    <rect x="61" y="79" width="13" height="1" fill="#999" />
    <rect x="61" y="82" width="13" height="1" fill="#999" />
    <rect x="61" y="85" width="8" height="1" fill="#999" />
    <!-- City emblem -->
    <circle cx="35" cy="70" r="5" fill="#bf9000" />
    <path d="M33,68 L37,68 L35,65 Z" fill="#fff" />
    <path d="M32,71 L38,71 L38,73 L32,73 Z" fill="#fff" />
    <!-- Glasses -->
    <rect x="40" y="37" width="6" height="4" rx="1" fill="none" stroke="#333" stroke-width="0.5" />
    <rect x="54" y="37" width="6" height="4" rx="1" fill="none" stroke="#333" stroke-width="0.5" />
    <path d="M46,39 L54,39" fill="none" stroke="#333" stroke-width="0.5" />
  </svg>