<svg xmlns="http://www.w3.org/2000/svg" viewBox="0 0 100 100" width="100" height="100">
    <circle cx="50" cy="40" r="25" fill="#a0522d" />
    <circle cx="50" cy="40" r="20" fill="#cd853f" />
    <!-- Face -->
    <circle cx="50" cy="40" r="18" fill="#deb887" />
    <!-- Hair -->
    <path d="M35,25 Q40,20 50,20 Q60,20 65,25 Q65,15 50,15 Q35,15 35,25" fill="#5e3200" />
    <!-- Eyes -->
    <ellipse cx="43" cy="38" rx="2" ry="2.5" fill="#5e3200" />
    <ellipse cx="57" cy="38" rx="2" ry="2.5" fill="#5e3200" />
    <!-- Eyebrows -->
    <path d="M40,35 Q43,33 46,35" fill="none" stroke="#5e3200" stroke-width="1.5" />
    <path d="M54,35 Q57,33 60,35" fill="none" stroke="#5e3200" stroke-width="1.5" />
    <!-- Nose -->
    <path d="M50,40 Q52,43 50,46" fill="none" stroke="#5e3200" stroke-width="1" />
    <!-- Mouth/Smile -->
    <path d="M43,48 Q50,52 57,48" fill="none" stroke="#5e3200" stroke-width="1.5" />
    <!-- Beard/stubble -->
    <path d="M40,48 Q40,55 50,57 Q60,55 60,48" fill="none" stroke="#8b4513" stroke-width="0.5" stroke-dasharray="1,1" />
    <!-- Supplier outfit -->
    <rect x="40" y="65" width="20" height="25" fill="#996633" />
    <path d="M35,65 Q40,60 50,60 Q60,60 65,65 L65,85 L35,85 Z" fill="#996633" />
    <!-- Apron -->
    <path d="M40,65 L40,85 M60,65 L60,85" stroke="#734d26" stroke-width="1" />
    <path d="M45,65 L45,70 Q50,72 55,70 L55,65" fill="#734d26" />
    <!-- Coffee bag -->
    <rect x="60" y="70" width="12" height="15" rx="2" fill="#8b4513" />
    <path d="M60,75 L72,75" stroke="#5e3200" stroke-width="1" />
    <text x="63" y="82" font-family="Arial" font-size="4" fill="#fff">COFFEE</text>
    <!-- Coffee beans scattered -->
    <ellipse cx="32" cy="80" rx="2" ry="1" transform="rotate(45,32,80)" fill="#5e3200" />
    <ellipse cx="36" cy="76" rx="2" ry="1" transform="rotate(-30,36,76)" fill="#5e3200" />
    <ellipse cx="30" cy="74" rx="2" ry="1" transform="rotate(60,30,74)" fill="#5e3200" />
  </svg>