<svg xmlns="http://www.w3.org/2000/svg" viewBox="0 0 100 100" width="100" height="100">
    <circle cx="50" cy="40" r="25" fill="#4a4a4a" />
    <circle cx="50" cy="40" r="20" fill="#666666" />
    <!-- Face -->
    <circle cx="50" cy="40" r="18" fill="#f1c27d" />
    <!-- Hard hat -->
    <path d="M30,34 Q40,20 60,20 Q70,20 70,34" fill="#ffcc00" />
    <path d="M30,34 L70,34" fill="none" stroke="#e6b800" stroke-width="2" />
    <!-- Face features -->
    <ellipse cx="43" cy="38" rx="2" ry="2.5" fill="#333" />
    <ellipse cx="57" cy="38" rx="2" ry="2.5" fill="#333" />
    <path d="M43,45 Q50,49 57,45" fill="none" stroke="#333" stroke-width="1.5" />
    <!-- Mustache -->
    <path d="M45,44 Q50,46 55,44" fill="#333" />
    <!-- Technician uniform -->
    <path d="M40,58 L45,70 L35,85 L65,85 L55,70 L60,58" fill="#4682b4" />
    <rect x="45" y="70" width="10" height="15" fill="#4682b4" />
    <!-- Pockets & details -->
    <rect x="42" y="65" width="5" height="7" rx="1" fill="#3a6a8c" />
    <rect x="53" y="65" width="5" height="7" rx="1" fill="#3a6a8c" />
    <path d="M45,58 L45,63 M55,58 L55,63" stroke="#3a6a8c" stroke-width="1.5" />
    <!-- Tools -->
    <path d="M67,60 L73,55 L73,58 L70,60 Z" fill="#c0c0c0" />
    <rect x="37" y="75" width="4" height="10" fill="#c0c0c0" />
    <rect x="38.5" y="70" width="1" height="5" fill="#666" />
    <!-- Coffee machine part -->
    <path d="M25,80 Q20,75 25,70 L30,70 L30,80 Z" fill="#c0c0c0" />
    <circle cx="27.5" cy="73" r="1" fill="#333" />
    <circle cx="27.5" cy="77" r="1" fill="#333" />
  </svg>