<svg xmlns="http://www.w3.org/2000/svg" viewBox="0 0 100 100" width="100" height="100">
    <circle cx="50" cy="40" r="25" fill="#6fa8dc" />
    <circle cx="50" cy="40" r="20" fill="#a4c2f4" />
    <!-- Face -->
    <circle cx="50" cy="40" r="18" fill="#ffcc99" />
    <!-- Hair -->
    <path d="M30,30 Q40,25 50,25 Q60,25 70,30 Q70,15 50,15 Q30,15 30,30" fill="#4a4a4a" />
    <!-- Glasses -->
    <rect x="40" y="37" width="8" height="5" rx="2" fill="#333" />
    <rect x="52" y="37" width="8" height="5" rx="2" fill="#333" />
    <line x1="48" y1="39" x2="52" y2="39" stroke="#333" stroke-width="1" />
    <line x1="40" y1="39" x2="35" y2="37" stroke="#333" stroke-width="1" />
    <line x1="60" y1="39" x2="65" y2="37" stroke="#333" stroke-width="1" />
    <!-- Mouth -->
    <path d="M45,45 Q50,48 55,45" fill="none" stroke="#333" stroke-width="1.5" />
    <!-- Eyes -->
    <circle cx="44" cy="39" r="1.5" fill="#333" />
    <circle cx="56" cy="39" r="1.5" fill="#333" />
    <!-- Weather symbols -->
    <circle cx="35" cy="22" r="5" fill="#ffdd55" />
    <path d="M65,20 L70,15 M65,20 L70,20 M65,20 L70,25" stroke="#6fa8dc" stroke-width="2" />
    <path d="M50,70 Q60,75 65,70 Q70,65 65,60" fill="none" stroke="#6fa8dc" stroke-width="2" />
    <!-- Weather outfit -->
    <path d="M38,58 Q50,63 62,58 L65,85 L35,85 Z" fill="#cfe2f3" />
    <path d="M45,58 L45,75 M55,58 L55,75" stroke="#a4c2f4" stroke-width="1.5" />
    <path d="M35,85 Q40,90 50,90 Q60,90 65,85" fill="#cfe2f3" />
  </svg>